PathFileType	3	(X/Y/Z)	D:\Vicon Database\Healthy Subjects\S0040\Jan. 30, 2020\Force Plate Walk 2.trc
DataRate	CameraRate	NumFrames	NumMarkers	Units	OrigDataRate	OrigDataStartFrame	OrigNumFrames
100.0	100.0	4	53	mm	100.0	382	306	
Frame#	Time	right_foot_cluster2			right_foot_cluster3			sternum_cluster1			sternum_cluster2			sternum_cluster3			left_asis			right_asis			left_psis			right_psis			sacrum_cluster1			sacrum_cluster2			sacrum_cluster3			left_lat_femoral_epicondyle			left_anterior_thigh15			left_anterior_thigh25			left_anterior_thigh50			left_lateral_thigh25			left_lateral_thigh50			left_thigh_cluster1			left_thigh_cluster2			left_thigh_cluster3			left_fibular_head			left_tibial_tuberosity			left_anterior_shank30			left_lateral_malleolus			left_shank_cluster1			left_shank_cluster2			left_shank_cluster3			left_heel			left_metatarsal2			left_foot_cluster1			left_foot_cluster2			left_foot_cluster3			right_lat_femoral_epicondyle			right_anterior_thigh15			right_anterior_thigh25			right_anterior_thigh50			right_lateral_thigh25			right_lateral_thigh50			right_thigh_cluster1			right_thigh_cluster2			right_thigh_cluster3			right_fibular_head			right_tibial_tuberosity			right_lateral_distal_shank			right_anterior_shank30			right_lateral_malleolus			right_shank_cluster1			right_shank_cluster2			right_shank_cluster3			right_heel			right_metatarsal2			right_foot_cluster1			
		X1	Y1	Z1	X2	Y2	Z2	X3	Y3	Z3	X4	Y4	Z4	X5	Y5	Z5	X6	Y6	Z6	X7	Y7	Z7	X8	Y8	Z8	X9	Y9	Z9	X10	Y10	Z10	X11	Y11	Z11	X12	Y12	Z12	X13	Y13	Z13	X14	Y14	Z14	X15	Y15	Z15	X16	Y16	Z16	X17	Y17	Z17	X18	Y18	Z18	X19	Y19	Z19	X20	Y20	Z20	X21	Y21	Z21	X22	Y22	Z22	X23	Y23	Z23	X24	Y24	Z24	X25	Y25	Z25	X26	Y26	Z26	X27	Y27	Z27	X28	Y28	Z28	X29	Y29	Z29	X30	Y30	Z30	X31	Y31	Z31	X32	Y32	Z32	X33	Y33	Z33	X34	Y34	Z34	X35	Y35	Z35	X36	Y36	Z36	X37	Y37	Z37	X38	Y38	Z38	X39	Y39	Z39	X40	Y40	Z40	X41	Y41	Z41	X42	Y42	Z42	X43	Y43	Z43	X44	Y44	Z44	X45	Y45	Z45	X46	Y46	Z46	X47	Y47	Z47	X48	Y48	Z48	X49	Y49	Z49	X50	Y50	Z50	X51	Y51	Z51	X52	Y52	Z52	X53	Y53	Z53	
382	3.81	2085.3472	102.64322	-134.85852	2085.6816	107.0268	-172.15829	1990.5077	1456.2395	-90.247437	1980.2449	1428.0074	-81.222633	1979.0376	1430.8718	-119.1489	2020.0613	1079.4562	21.200775	2007.5684	1085.2574	-225.55672	2181.9319	1095.4109	-28.84655	2177.6116	1102.3535	-146.29961	2187.8579	1156.4888	-93.149582	2193.6519	1131.8199	-106.15839	2198.8225	1125.2585	-67.454483	1917.0676	576.35938	49.751709	1841.0155	680.92316	12.080715	1864.566	769.83588	23.60848	1931.6318	892.24976	28.003923	1969.9449	716.68256	70.559082	2025.4111	855.71613	93.964653	2009.4337	811.15509	100.58254	2001.2679	782.70911	97.646133	1970.4773	804.2511	103.54926	1912.3611	501.11807	57.133751	1852.2997	486.62897	7.6128693	1927.0792	241.29178	-6.1082773	1999.3561	134.68015	19.701038	1861.4928	428.69431	-20.215075	1864.4673	401.1474	-11.236385	1874.9364	403.30475	-48.514305	2074.2195	112.04641	-26.396152	1858.7446	80.505722	-4.6168551	1909.6179	137.28185	0.3316471	1890.3051	115.84407	10.965456	1881.2543	123.37395	-25.736391	2116.6504	539.20032	-225.13443	2024.4363	618.92426	-168.81068	1996.3066	697.24152	-170.80838	1976.6924	827.00439	-187.59099	2092.2285	697.67566	-254.48346	2074.3638	842.73383	-285.90387	2088.8066	791.10498	-290.90497	2079.5837	764.18115	-285.27356	2118.8303	766.44232	-283.50534	2136.3379	472.57446	-225.53523	2083.4211	458.93463	-180.32858	2180.5212	206.15532	-202.06332	2133.438	215.68738	-156.55449	2196.4355	103.88899	-183.74323	2101.0522	397.19766	-122.80808	2110.2876	370.49332	-115.06167	2086.8308	365.43567	-143.75792	2273.9053	71.036102	-148.29182	2053.5632	68.656349	-147.28287	2109.0764	117.09603	-143.14359
383	3.82	2084.7114	102.51221	-134.73943	2085.1875	106.92046	-172.05334	1976.2301	1454.8792	-90.123047	1965.9021	1426.7428	-81.021759	1964.6075	1429.7527	-119.03064	2006.0253	1078.6252	21.232006	1993.8539	1083.673	-225.70241	2168.1694	1094.1709	-28.658361	2164.1387	1101.3	-146.26903	2173.9517	1155.2231	-93.032234	2179.7864	1130.5568	-105.99497	2184.9346	1123.9952	-67.366035	1900.1962	576.4668	49.160225	1825.3478	681.84277	10.771322	1849.1158	770.64301	22.499069	1916.9331	892.47424	27.532665	1953.4218	717.06006	70.738197	2010.027	855.6524	94.698341	1993.504	811.04071	101.02531	1985.2117	782.58203	98.079735	1954.4941	804.63635	104.02556	1892.4053	500.61197	56.481945	1832.8823	489.15085	6.4963198	1889.8578	239.76436	-6.0261436	1954.2124	128.27859	20.467564	1838.3052	431.18787	-21.349855	1839.0149	403.5116	-12.179595	1850.1053	404.94623	-49.33091	2027.6719	100.27335	-24.976229	1810.6158	83.678391	-4.9559627	1864.9657	136.86761	0.32457554	1843.9049	117.2929	10.819578	1835.9216	124.95374	-26.002222	2112.7261	539.36896	-224.89377	2018.8499	617.19617	-168.56464	1988.5385	695.01599	-170.32213	1965.9728	824.6745	-187.10614	2084.7822	697.13312	-254.14279	2063.3484	841.99646	-286.33173	2078.5488	790.38892	-290.54633	2070.176	763.35437	-284.82642	2109.2168	766.50043	-283.2872	2133.3708	473.12787	-224.92334	2080.4409	458.89587	-180.08089	2179.281	206.74744	-201.63573	2132.126	216.10538	-156.15887	2195.8594	104.61463	-183.32524	2097.9912	397.41602	-122.7179	2107.6648	370.55432	-114.76894	2085.4868	364.99261	-143.45181	2273.4597	72.176872	-147.99791	2053.1689	68.367561	-147.23123	2108.8306	117.01987	-142.74059
384	3.83	2084.1426	102.50368	-134.47865	2084.6086	106.89887	-171.84792	1961.8468	1453.5667	-89.915085	1951.4973	1425.3167	-80.833176	1950.0193	1428.3544	-118.73957	1991.9564	1077.3231	21.320982	1979.9437	1081.9349	-225.71744	2154.1797	1092.7711	-28.403917	2149.8311	1099.5162	-145.84995	2159.9272	1153.7003	-92.72081	2165.7974	1128.954	-105.83627	2170.9822	1122.5031	-67.115715	1883.5835	575.94067	49.113499	1810.4446	681.87158	9.1616154	1834.2139	770.50012	21.106682	1902.1147	891.87469	27.172806	1937.5933	716.612	70.668671	1994.7091	854.99896	95.235428	1978.0336	810.33118	101.34779	1969.525	781.65057	97.738983	1938.8904	804.06171	103.91951	1872.9827	499.85757	55.976749	1813.6115	491.14163	5.5274816	1853.2423	239.13364	-5.9216361	1909.1711	123.27878	21.562237	1815.6848	433.49188	-22.019751	1813.9912	406.11066	-13.055906	1825.3827	406.80798	-49.947903	1980.7184	90.162491	-23.221596	1762.827	88.50238	-5.4689732	1820.6865	137.74648	0.24110872	1798.5397	119.57683	10.502346	1791.2452	127.87017	-26.263819	2108.4231	539.71063	-224.41086	2012.717	615.49268	-168.31573	1980.3356	692.86414	-169.70834	1954.7579	822.35834	-186.54544	2076.2551	696.76312	-253.62053	2052.5229	840.88635	-286.11249	2068.2817	789.79077	-290.34	2060.5046	762.49365	-284.10593	2099.3762	766.22217	-282.8895	2130.0647	473.70184	-224.28293	2077.0051	458.91074	-179.6929	2177.8745	207.62917	-201.17836	2130.5054	216.58556	-155.86945	2195.249	105.52531	-182.75545	2094.4236	397.64496	-122.42045	2104.7253	370.88791	-114.1902	2080.9016	365.97964	-143.61392	2272.7236	72.934158	-147.95547	2052.7485	68.360535	-147.18335	2107.752	117.03592	-142.65459
385	3.84	2083.3435	102.26901	-134.26132	2083.9236	106.82656	-171.66812	1947.1395	1451.8593	-89.398323	1937.1731	1423.5896	-80.584541	1936.0427	1426.5901	-118.54684	1977.6943	1075.9248	21.440529	1965.9058	1080.0944	-225.66759	2140.1528	1090.9695	-28.107752	2135.6565	1097.7018	-145.5202	2146.0796	1152.095	-92.362228	2151.7185	1127.2297	-105.50405	2156.9055	1120.701	-66.804016	1867.6841	574.71155	48.925278	1796.4196	681.03406	7.432569	1820.0326	769.28235	19.469837	1887.3901	890.39142	26.945162	1922.7574	715.16882	70.532387	1979.6798	853.70697	95.53096	1962.8921	809.07977	101.4394	1954.274	780.26099	97.876129	1923.8008	802.7934	104.42258	1853.9615	498.62689	55.726143	1794.3772	492.83698	4.8030243	1817.2523	239.35794	-5.6302667	1864.3185	119.70502	22.36219	1793.1565	436.00693	-22.775812	1789.7635	408.65793	-13.724624	1801.4808	408.56161	-50.472218	1934.4242	81.989906	-21.248903	1716.5405	94.503609	-6.1842837	1777.5291	139.81712	0.25581762	1753.9282	123.45279	10.375142	1747.6573	131.87007	-26.662138	2103.7695	540.14789	-223.75581	2006.3794	613.87457	-167.64899	1971.7277	690.73505	-168.86824	1944.6285	819.41254	-186.46649	2068.1465	696.36902	-252.69193	2040.9016	839.91608	-285.53668	2057.8503	788.91486	-289.87665	2050.3516	761.66174	-283.72592	2089.0808	765.67499	-282.38904	2126.4883	474.43802	-223.51178	2073.5291	458.85269	-179.1851	2176.53	208.62086	-200.64639	2128.9294	216.82797	-155.67714	2194.2832	106.50532	-182.38748	2091.7627	397.77249	-121.83125	2101.8464	371.14011	-113.57346	2078.042	365.79272	-143.38887	2272.3057	74.559608	-147.4762	2052.2292	67.789337	-147.09868	2107.4451	116.68915	-142.3631
